<svg xmlns="http://www.w3.org/2000/svg" viewBox="72 72 72 72" width="72px" height="72px">
	<defs>
		<style>
			.cls-1{fill:#1b1464;}
			.cls-2{fill:#ccc;}
			.cls-3{fill:#f68b8b;}
			.cls-4{fill:#de7e7e;}
			.cls-5{fill:#fefefe;}
		</style>
	</defs>
	<title>home-icon</title>
	<g id="Layer_2" data-name="Layer 2">
		<g id="Layer_1-2" data-name="Layer 1">
			<path class="cls-1" d="M0,28.47a4.59,4.59,0,0,1,1.36-1.64l30-25c3-2.51,6.35-2.49,9.37,0L54.53,13.41l.6.48c0-1.4,0-2.69,0-4a2.25,2.25,0,1,1,4.5.11c0,2.27,0,4.54,0,6.82a1.58,1.58,0,0,0,.67,1.4c3.57,2.93,7.1,5.9,10.66,8.84a2.38,2.38,0,0,1,1,2.38,2.24,2.24,0,0,1-3.45,1.44c-.33-.21-.62-.47-1-.77V64.86a6.74,6.74,0,0,1-5.06,6.7,7.36,7.36,0,0,1-1.87.22H11.42A6.75,6.75,0,0,1,4.5,64.84q0-13.28,0-26.57a2.26,2.26,0,1,1,4.5,0v26.3c0,1.82.85,2.67,2.66,2.67,3.35,0,6.7,0,10.05,0,.61,0,.81-.11.81-.78,0-7.85,0-15.7,0-23.55a6.76,6.76,0,0,1,7.16-7.18h12.8a6.74,6.74,0,0,1,7,7c0,7.92,0,15.84,0,23.77,0,.57.12.73.71.72,2.77,0,5.53,0,8.3,0a1.49,1.49,0,0,1,1-.18c.49,0,1,0,1.47,0a2,2,0,0,0,1.86-1.81,6.91,6.91,0,0,0,0-.91q0-18.39,0-36.77a2.26,2.26,0,0,0-.9-1.91Q52,17.44,42.09,9.16L37.66,5.48a2.24,2.24,0,0,0-3.29,0,1.41,1.41,0,0,1-.67.36l-7.41,6.13L4.17,30.36C2.41,31.83,1.05,31.57,0,29.59Z"/>
			<path class="cls-2" d="M33.7,5.8c.21-.19.41-.39.62-.57a2.29,2.29,0,0,1,3.35,0l9.07,7.56L62.5,25.9A1.23,1.23,0,0,1,63,27q0,18.87,0,37.74a2.3,2.3,0,0,1-2.61,2.58l-1.89,0q0-19.94,0-39.85a1.18,1.18,0,0,0-.42-1c-1.39-1.17-2.76-2.36-4.15-3.54l-4.17-3.51-6-5c-1.66-1.4-3.3-2.82-5-4.22Z"/>
			<path class="cls-3" d="M40.5,67.26q-6.51,0-13,0c-.41,0-.5-.14-.5-.53q0-12.12,0-24.25a2.17,2.17,0,0,1,2.17-2.22c3.58,0,7.17,0,10.75,0a1.58,1.58,0,0,1,.61,1,5.79,5.79,0,0,1,.19,1.6q0,11.61,0,23.23A1.53,1.53,0,0,1,40.5,67.26Z"/>
			<path class="cls-4" d="M40.5,67.26V42.51a5.65,5.65,0,0,0-.57-2.21c1,0,1.93,0,2.89,0A2.2,2.2,0,0,1,45,42.51q0,12.12,0,24.25c0,.39-.09.54-.51.53C43.17,67.26,41.83,67.26,40.5,67.26Z"/>
			<path class="cls-5" d="M33.71,56A2.25,2.25,0,1,1,36,53.85,2.27,2.27,0,0,1,33.71,56Z"/>
		</g>
	</g>
</svg>